# xmcd CD database file
#
# Track frame offsets:
#	150
#	22567
#	44900
#	67192
#	89862
#	109352
#	125795
#	141547
#	159950
#	172560
#	196355
#
# Disc length: 2843 seconds
#
# Revision: 0
# Processed by: cddbd v1.5.1PL0 Copyright (c) Steve Scherf et al.
# Submitted via: CDex 1.51
#
DISCID=a10b190b
DTITLE=Totta Näslund - Soul!/På drift
DYEAR=2004
DGENRE=Blues
TTITLE0=På drift
TTITLE1=Skepp av kärlek
TTITLE2=Långtbort långt upp i det blå
TTITLE3=En svensk rockstjärnas död
TTITLE4=Gå ut och älska nån
TTITLE5=Bättre begagnat
TTITLE6=Om du går din väg
TTITLE7=Grand hotel
TTITLE8=En annan man
TTITLE9=Spöktåg
TTITLE10=Du är för bra för mej
EXTD=YEAR: 2004
EXTT0=
EXTT1=
EXTT2=
EXTT3=
EXTT4=
EXTT5=
EXTT6=
EXTT7=
EXTT8=
EXTT9=
EXTT10=
PLAYORDER=
